HIERARCHY
ROOT hip
{
  OFFSET 0 0 0
  CHANNELS 6 Xposition Yposition Zposition Zrotation Yrotation Xrotation
  JOINT abdomen
  {
    OFFSET 0 20.6881 -0.73152
    CHANNELS 3 Zrotation Xrotation Yrotation
    JOINT chest
    {
      OFFSET 0 11.7043 -0.48768
      CHANNELS 3 Zrotation Xrotation Yrotation
      JOINT neck
      {
        OFFSET 0 22.1894 -2.19456
        CHANNELS 3 Zrotation Xrotation Yrotation
        JOINT head
        {
          OFFSET -0.24384 7.07133 1.2192
          CHANNELS 3 Zrotation Xrotation Yrotation
          JOINT leftEye
          {
            OFFSET 4.14528 8.04674 8.04672
            CHANNELS 3 Zrotation Xrotation Yrotation
            End Site
            {
              OFFSET 1 0 0
            }
          }
          JOINT rightEye
          {
            OFFSET -3.6576 8.04674 8.04672
            CHANNELS 3 Zrotation Xrotation Yrotation
            End Site
            {
              OFFSET 1 0 0
            }
          }
        }
      }
      JOINT rCollar
      {
        OFFSET -2.68224 19.2634 -4.8768
        CHANNELS 3 Zrotation Xrotation Yrotation
        JOINT rShldr
        {
          OFFSET -8.77824 -1.95073 1.46304
          CHANNELS 3 Zrotation Xrotation Yrotation
          JOINT rForeArm
          {
            OFFSET -28.1742 -1.7115 0.48768
            CHANNELS 3 Zrotation Xrotation Yrotation
            JOINT rHand
            {
              OFFSET -22.5879 0.773209 7.07136
              CHANNELS 3 Zrotation Xrotation Yrotation
              JOINT rThumb1
              {
                OFFSET -1.2192 -0.487915 3.41376
                CHANNELS 3 Zrotation Xrotation Yrotation
                JOINT rThumb2
                {
                  OFFSET -3.37035 -0.52449 3.41376
                  CHANNELS 3 Zrotation Xrotation Yrotation
                  End Site
                  {
                    OFFSET -1.78271 -1.18214 1.43049
                  }
                }
              }
              JOINT rIndex1
              {
                OFFSET -7.75947 0.938293 5.60832
                CHANNELS 3 Zrotation Xrotation Yrotation
                JOINT rIndex2
                {
                  OFFSET -2.54057 -0.884171 1.56538
                  CHANNELS 3 Zrotation Xrotation Yrotation
                  End Site
                  {
                    OFFSET -1.62519 -0.234802 1.16502
                  }
                }
              }
              JOINT rMid1
              {
                OFFSET -8.24714 1.18213 3.41376
                CHANNELS 3 Zrotation Xrotation Yrotation
                JOINT rMid2
                {
                  OFFSET -3.10165 -0.590103 1.0647
                  CHANNELS 3 Zrotation Xrotation Yrotation
                  End Site
                  {
                    OFFSET -2.48547 -0.328903 0.83742
                  }
                }
              }
              JOINT rRing1
              {
                OFFSET -8.82822 0.546677 1.51678
                CHANNELS 3 Zrotation Xrotation Yrotation
                JOINT rRing2
                {
                  OFFSET -2.60934 -0.819778 -0.0198488
                  CHANNELS 3 Zrotation Xrotation Yrotation
                  End Site
                  {
                    OFFSET -2.33842 -0.294052 0.168128
                  }
                }
              }
              JOINT rPinky1
              {
                OFFSET -8.27202 -0.0477905 -0.4584
                CHANNELS 3 Zrotation Xrotation Yrotation
                JOINT rPinky2
                {
                  OFFSET -1.82734 -0.647385 -0.700984
                  CHANNELS 3 Zrotation Xrotation Yrotation
                  End Site
                  {
                    OFFSET -1.69225 -0.51767 -0.607171
                  }
                }
              }
            }
          }
        }
      }
      JOINT lCollar
      {
        OFFSET 2.68224 19.2634 -4.8768
        CHANNELS 3 Zrotation Xrotation Yrotation
        JOINT lShldr
        {
          OFFSET 8.77824 -1.95073 1.46304
          CHANNELS 3 Zrotation Xrotation Yrotation
          JOINT lForeArm
          {
            OFFSET 28.1742 -1.7115 0.48768
            CHANNELS 3 Zrotation Xrotation Yrotation
            JOINT lHand
            {
              OFFSET 22.5879 0.773209 7.07136
              CHANNELS 3 Zrotation Xrotation Yrotation
              JOINT lThumb1
              {
                OFFSET 1.2192 -0.487915 3.41376
                CHANNELS 3 Zrotation Xrotation Yrotation
                JOINT lThumb2
                {
                  OFFSET 3.37035 -0.52449 3.41376
                  CHANNELS 3 Zrotation Xrotation Yrotation
                  End Site
                  {
                    OFFSET 1.78271 -1.18214 1.43049
                  }
                }
              }
              JOINT lIndex1
              {
                OFFSET 7.75947 0.938293 5.60832
                CHANNELS 3 Zrotation Xrotation Yrotation
                JOINT lIndex2
                {
                  OFFSET 2.54057 -0.884171 1.56538
                  CHANNELS 3 Zrotation Xrotation Yrotation
                  End Site
                  {
                    OFFSET 1.62519 -0.234802 1.16502
                  }
                }
              }
              JOINT lMid1
              {
                OFFSET 8.24714 1.18213 3.41376
                CHANNELS 3 Zrotation Xrotation Yrotation
                JOINT lMid2
                {
                  OFFSET 3.10165 -0.590103 1.0647
                  CHANNELS 3 Zrotation Xrotation Yrotation
                  End Site
                  {
                    OFFSET 2.48547 -0.328903 0.83742
                  }
                }
              }
              JOINT lRing1
              {
                OFFSET 8.82822 0.546677 1.51678
                CHANNELS 3 Zrotation Xrotation Yrotation
                JOINT lRing2
                {
                  OFFSET 2.60934 -0.819778 -0.0198488
                  CHANNELS 3 Zrotation Xrotation Yrotation
                  End Site
                  {
                    OFFSET 2.33842 -0.294052 0.168128
                  }
                }
              }
              JOINT lPinky1
              {
                OFFSET 8.27202 -0.0477905 -0.4584
                CHANNELS 3 Zrotation Xrotation Yrotation
                JOINT lPinky2
                {
                  OFFSET 1.82734 -0.647385 -0.700984
                  CHANNELS 3 Zrotation Xrotation Yrotation
                  End Site
                  {
                    OFFSET 1.69225 -0.51767 -0.607171
                  }
                }
              }
            }
          }
        }
      }
    }
  }
  JOINT rButtock
  {
    OFFSET -8.77824 4.35084 1.2192
    CHANNELS 3 Zrotation Xrotation Yrotation
    JOINT rThigh
    {
      OFFSET 0 -1.70687 -2.19456
      CHANNELS 3 Zrotation Xrotation Yrotation
      JOINT rShin
      {
        OFFSET 0 -36.8199 0.73152
        CHANNELS 3 Zrotation Xrotation Yrotation
        JOINT rFoot
        {
          OFFSET 0.73152 -45.1104 -5.12064
          CHANNELS 3 Zrotation Xrotation Yrotation
          End Site
          {
            OFFSET -1.1221 -3.69964 12.103
          }
        }
      }
    }
  }
  JOINT lButtock
  {
    OFFSET 8.77824 4.35084 1.2192
    CHANNELS 3 Zrotation Xrotation Yrotation
    JOINT lThigh
    {
      OFFSET 0 -1.70687 -2.19456
      CHANNELS 3 Zrotation Xrotation Yrotation
      JOINT lShin
      {
        OFFSET 0 -36.8199 0.73152
        CHANNELS 3 Zrotation Xrotation Yrotation
        JOINT lFoot
        {
          OFFSET -0.73152 -45.1104 -5.12064
          CHANNELS 3 Zrotation Xrotation Yrotation
          End Site
          {
            OFFSET 1.1221 -3.69964 12.103
          }
        }
      }
    }
  }
}
MOTION
Frames:	8
Frame Time:	0.00833333
-78.3095 85.0697 -201.058 0.0 0.0 0.0 0.202513 -0.000639081 0.00577302 0.0558293 -0.00093105 0.00967162 1.60579e-15 7.95139e-16 1.2424e-17 4.83295e-15 9.54166e-15 4.19311e-17 -0.0 0.0 0.0 -0.0 0.0 0.0 8.43522e-16 -2.32951e-18 9.93923e-17 1.86691e-14 -3.85145e-16 1.19271e-15 2.92909e-13 -9.02482e-14 -6.36111e-15 3.32256e-12 7.02952e-14 4.13472e-14 7.84012e-12 -4.19437e-14 1.01778e-13 1.35352e-11 -6.99722e-14 1.52667e-13 7.84802e-12 -3.77691e-14 8.90555e-14 7.73091 5.47488 0.417314 7.84161e-12 -4.17448e-14 9.85972e-14 2.90554 0.965183 0.102902 7.85217e-12 -4.14466e-14 9.38264e-14 10.2786 0.731801 0.0259123 7.83887e-12 -4.09496e-14 9.54166e-14 2.22167 -0.733487 -0.20892 7.46807e-16 -2.71776e-18 -9.93923e-17 1.5138e-14 -1.73937e-16 -7.95139e-16 2.8789e-13 8.62725e-14 0.0 3.3257e-12 -9.64106e-14 3.81667e-14 7.84164e-12 -2.30664e-14 8.5875e-14 1.35492e-11 -4.77083e-14 1.7016e-13 7.83609e-12 -2.14687e-14 9.54166e-14 -7.73091 5.47488 -0.417314 7.84106e-12 -2.26615e-14 8.5875e-14 -2.90554 0.965183 -0.102902 7.82984e-12 -2.28602e-14 9.46215e-14 -10.2786 0.731801 -0.0259123 7.84543e-12 -2.26615e-14 9.22361e-14 -2.22167 -0.733487 0.20892 -2.03217e-16 0.0 -3.88251e-19 0.677498 -3.60113 -0.0536497 -0.00454026 0.970121 -0.0387454 -0.524703 2.63023 0.113978 2.03217e-16 0.0 3.88251e-19 -0.369379 -2.81566 0.034263 0.00682569 -0.452696 0.0599312 0.522475 3.26753 -0.126811
-77.6554 83.0079 -203.545 -0.2454 8.5947 9.1317 1.50277 -2.50351 0.707147 -1.21368 2.32526 0.271077 -0.26831 2.33154 1.51047 -0.267442 -7.8288 2.99611 -0.0 0.0 0.0 -0.0 0.0 0.0 9.68573e-15 -3.41435e-14 1.31109e-14 23.6673 13.155 0.134597 -5.623 -2.91454 8.35699 -4.17728e-05 0.27278 0.038342 -6.3667e-11 1.99771e-10 1.40763e-11 -1.08918e-10 3.44804e-10 2.44417e-11 -6.36579e-11 1.99774e-10 1.40624e-11 7.73091 5.47488 0.417314 -6.36661e-11 1.99771e-10 1.40722e-11 2.90554 0.965183 0.102902 -6.36552e-11 1.99771e-10 1.40697e-11 10.2786 0.731801 0.0259123 -6.36679e-11 1.99773e-10 1.40735e-11 2.22167 -0.733487 -0.20892 9.60633e-15 -3.41425e-14 1.28554e-14 -21.8098 13.3569 0.127479 7.29833 -4.29529 -10.1374 -0.0134246 -2.5711 0.360031 5.59406e-11 -1.26605e-10 1.03654e-10 9.46858e-11 -2.21339e-10 1.79974e-10 5.59346e-11 -1.266e-10 1.03668e-10 -7.73091 5.47488 -0.417314 5.59405e-11 -1.26605e-10 1.03656e-10 -2.90554 0.965183 -0.102902 5.59308e-11 -1.26605e-10 1.03661e-10 -10.2786 0.731801 -0.0259123 5.59442e-11 -1.26605e-10 1.03657e-10 -2.22167 -0.733487 0.20892 -2.03217e-16 0.0 -3.88251e-19 1.45126 -9.84619 0.398356 0.0743664 10.1878 0.209901 -1.63885 -5.10771 -6.41472 2.03217e-16 0.0 3.88251e-19 0.68662 -10.9188 1.48132 0.0518752 9.78361 -0.0183164 -0.329852 -5.1663 -4.21758
-77.5825 83.0085 -203.543 -0.256 8.3861 9.1307 2.96382 -5.14424 1.45002 -2.59019 4.78648 0.548492 -0.685892 4.79043 3.13916 0.371559 -16.0113 6.40069 -0.0 0.0 0.0 -0.0 0.0 0.0 2.0519e-14 -7.99136e-14 2.94791e-14 48.6149 27.0772 0.302217 -10.6573 -5.79282 17.2666 -0.000602094 0.525611 0.0738882 -1.82532e-10 4.53987e-10 3.64015e-11 -3.1302e-10 7.83392e-10 6.3387e-11 -1.82522e-10 4.53988e-10 3.63861e-11 7.73091 5.47488 0.417314 -1.82532e-10 4.53986e-10 3.63963e-11 2.90554 0.965183 0.102902 -1.82521e-10 4.53987e-10 3.63961e-11 10.2786 0.731801 0.0259123 -1.82533e-10 4.53989e-10 3.64022e-11 2.22167 -0.733487 -0.20892 2.04568e-14 -7.9911e-14 2.91623e-14 -44.932 27.4823 0.29167 13.3941 -8.39848 -21.0458 0.00767577 -5.29488 0.743912 1.30315e-10 -2.65226e-10 2.11938e-10 2.20969e-10 -4.637e-10 3.68044e-10 1.30308e-10 -2.65218e-10 2.11958e-10 -7.73091 5.47488 -0.417314 1.30315e-10 -2.65225e-10 2.11942e-10 -2.90554 0.965183 -0.102902 1.30307e-10 -2.65226e-10 2.11943e-10 -10.2786 0.731801 -0.0259123 1.30318e-10 -2.65225e-10 2.11937e-10 -2.22167 -0.733487 0.20892 -2.03217e-16 0.0 -3.88251e-19 2.39107 -16.4373 0.894449 0.0657801 19.93 0.495722 -4.76211 -12.9931 -13.6245 2.03217e-16 0.0 3.88251e-19 2.28669 -19.4636 3.14225 0.131676 20.6104 -0.106955 -2.57783 -13.9515 -8.7894
-77.552 82.9581 -203.861 -0.3414 8.1642 9.8273 4.28844 -7.5047 2.12609 -3.81677 6.97705 0.799136 -1.17563 6.9751 4.56149 1.82597 -23.218 9.69646 -0.0 0.0 0.0 -0.0 0.0 0.0 2.73701e-14 -1.02426e-13 3.91338e-14 70.77 39.4641 0.509308 -14.3882 -8.00108 25.3017 -0.00122067 0.818337 0.115036 -2.06681e-10 5.99398e-10 4.20255e-11 -3.53825e-10 1.03455e-09 7.30198e-11 -2.0667e-10 5.99398e-10 4.20092e-11 7.73091 5.47488 0.417314 -2.06682e-10 5.99397e-10 4.20194e-11 2.90554 0.965183 0.102902 -2.0667e-10 5.99397e-10 4.20213e-11 10.2786 0.731801 0.0259123 -2.06682e-10 5.994e-10 4.20295e-11 2.22167 -0.733487 -0.20892 2.73254e-14 -1.02422e-13 3.8765e-14 -65.6541 40.0697 0.486232 17.5008 -11.2729 -30.9874 0.0574099 -7.71206 1.08886 1.52139e-10 -3.79769e-10 3.1079e-10 2.56959e-10 -6.63922e-10 5.39581e-10 1.52132e-10 -3.79758e-10 3.10814e-10 -7.73091 5.47488 -0.417314 1.52139e-10 -3.79768e-10 3.10796e-10 -2.90554 0.965183 -0.102902 1.52133e-10 -3.79769e-10 3.10794e-10 -10.2786 0.731801 -0.0259123 1.52142e-10 -3.79768e-10 3.10786e-10 -2.22167 -0.733487 0.20892 -2.03217e-16 0.0 -3.88251e-19 3.31544 -22.3311 1.38872 -0.0356383 28.6211 0.794319 -9.30185 -19.4571 -20.6216 2.03217e-16 0.0 3.88251e-19 4.15818 -27.0535 4.82391 0.235088 30.2561 -0.20145 -5.83554 -21.5393 -13.2915
-77.5016 83.028 -203.841 -0.3784 7.9169 9.8452 5.14266 -9.1687 2.62003 -4.6232 8.49159 0.977859 -1.57434 8.49416 5.43823 3.3526 -28.2568 12.0338 -0.0 0.0 0.0 -0.0 0.0 0.0 2.42657e-14 -6.67936e-14 3.20043e-14 86.1157 48.0137 0.721271 -16.5901 -9.24736 30.9288 -0.00179834 1.2108 0.170192 5.96037e-12 4.72796e-10 5.89675e-12 1.3612e-11 8.17142e-10 9.3715e-12 5.97229e-12 4.72796e-10 5.88085e-12 7.73091 5.47488 0.417314 5.95927e-12 4.72795e-10 5.89039e-12 2.90554 0.965183 0.102902 5.9706e-12 4.72796e-10 5.89357e-12 10.2786 0.731801 0.0259123 5.95996e-12 4.72799e-10 5.90311e-12 2.22167 -0.733487 -0.20892 2.42393e-14 -6.67889e-14 3.16068e-14 -80.1951 48.8132 0.655961 19.6994 -12.6385 -37.9552 0.108764 -9.36394 1.32798 4.25876e-11 -4.34117e-10 3.86062e-10 6.72174e-11 -7.58801e-10 6.69787e-10 4.25805e-11 -4.34104e-10 3.86088e-10 -7.73091 5.47488 -0.417314 4.25887e-11 -4.34116e-10 3.86068e-10 -2.90554 0.965183 -0.102902 4.25833e-11 -4.34117e-10 3.86064e-10 -10.2786 0.731801 -0.0259123 4.25908e-11 -4.34116e-10 3.86056e-10 -2.22167 -0.733487 0.20892 -2.03217e-16 0.0 -3.88251e-19 3.97938 -26.4863 1.80374 -0.171722 34.6861 1.04337 -13.4687 -23.4726 -25.9183 2.03217e-16 0.0 3.88251e-19 5.69682 -32.3244 6.14372 0.329996 36.9492 -0.284681 -8.83425 -26.6242 -16.7143
-77.4109 82.9385 -203.867 -0.3739 7.692 9.9137 5.29367 -9.8638 2.84302 -4.82701 9.05685 1.05078 -1.74148 9.0688 5.5279 3.98715 -30.4331 12.5052 -0.0 0.0 0.0 -0.0 0.0 0.0 4.6292e-15 7.53626e-14 -7.97585e-15 92.0559 51.1935 0.846639 -17.3396 -9.62777 33.0602 -0.00312103 1.75485 0.246681 6.5976e-10 -1.251e-10 -1.25369e-10 1.1417e-09 -2.11849e-10 -2.20809e-10 6.59771e-10 -1.25099e-10 -1.25382e-10 7.73091 5.47488 0.417314 6.59758e-10 -1.25099e-10 -1.25375e-10 2.90554 0.965183 0.102902 6.59768e-10 -1.25098e-10 -1.25371e-10 10.2786 0.731801 0.0259123 6.59759e-10 -1.25096e-10 -1.25361e-10 2.22167 -0.733487 -0.20892 4.6301e-15 7.53673e-14 -8.37187e-15 -85.9484 52.1746 0.690251 20.3826 -12.9443 -40.5307 0.131488 -9.9644 1.41579 -3.34118e-10 -4.24545e-10 4.37133e-10 -5.8211e-10 -7.41289e-10 7.57134e-10 -3.34125e-10 -4.24533e-10 4.37157e-10 -7.73091 5.47488 -0.417314 -3.34117e-10 -4.24545e-10 4.37139e-10 -2.90554 0.965183 -0.102902 -3.34122e-10 -4.24545e-10 4.37136e-10 -10.2786 0.731801 -0.0259123 -3.34115e-10 -4.24545e-10 4.37128e-10 -2.22167 -0.733487 0.20892 -2.03217e-16 0.0 -3.88251e-19 4.17456 -28.2149 2.05485 -0.241521 37.0681 1.15254 -15.2828 -24.8944 -28.0352 2.03217e-16 0.0 3.88251e-19 6.22021 -34.416 6.62577 0.372466 39.5165 -0.327494 -10.0494 -28.5875 -17.9096
-77.3512 83.0467 -203.867 -0.4041 7.4708 9.9671 4.92697 -9.86763 2.8694 -4.59525 8.94431 1.04719 -1.71988 8.97258 5.05045 3.73454 -30.6134 11.4845 -0.0 0.0 0.0 -0.0 0.0 0.0 -2.66924e-14 2.92411e-13 -7.09755e-14 91.331 50.538 0.863591 -17.1916 -9.52313 32.6713 -0.00623298 2.40659 0.338395 1.62345e-09 -1.05533e-09 -3.22842e-10 2.80411e-09 -1.81313e-09 -5.66895e-10 1.62346e-09 -1.05532e-09 -3.22851e-10 7.73091 5.47488 0.417314 1.62345e-09 -1.05532e-09 -3.22847e-10 2.90554 0.965183 0.102902 1.62346e-09 -1.05532e-09 -3.22844e-10 10.2786 0.731801 0.0259123 1.62345e-09 -1.05532e-09 -3.22834e-10 2.22167 -0.733487 -0.20892 -2.66582e-14 2.92415e-13 -7.13482e-14 -85.3827 51.692 0.589447 20.1903 -12.7692 -39.9345 0.126734 -9.81317 1.39376 -8.97685e-10 -3.68346e-10 4.70499e-10 -1.55288e-09 -6.41828e-10 8.13153e-10 -8.97692e-10 -3.68338e-10 4.70519e-10 -7.73091 5.47488 -0.417314 -8.97683e-10 -3.68347e-10 4.70504e-10 -2.90554 0.965183 -0.102902 -8.97689e-10 -3.68348e-10 4.70502e-10 -10.2786 0.731801 -0.0259123 -8.97681e-10 -3.68347e-10 4.70495e-10 -2.22167 -0.733487 0.20892 -2.03217e-16 0.0 -3.88251e-19 3.99967 -28.2112 2.16913 -0.23027 36.8203 1.13756 -14.9899 -24.7147 -27.6683 2.03217e-16 0.0 3.88251e-19 5.86875 -34.2516 6.40706 0.364495 39.1365 -0.33199 -9.63816 -28.4315 -17.3007
-77.2648 83.0588 -203.899 -0.4376 7.2699 10.1023 4.3298 -9.58996 2.82527 -4.17962 8.56582 1.01557 -1.60336 8.648 4.35156 3.11461 -30.0256 9.86997 -0.0 0.0 0.0 -0.0 0.0 0.0 -5.85371e-14 4.99222e-13 -1.28218e-13 87.9529 48.3462 0.817299 -16.6848 -9.22504 31.2897 -0.0111412 3.08227 0.433591 2.53566e-09 -1.97372e-09 -4.88106e-10 4.37766e-09 -3.3944e-09 -8.57043e-10 2.53567e-09 -1.97372e-09 -4.88111e-10 7.73091 5.47488 0.417314 2.53565e-09 -1.97372e-09 -4.8811e-10 2.90554 0.965183 0.102902 2.53566e-09 -1.97372e-09 -4.88107e-10 10.2786 0.731801 0.0259123 2.53565e-09 -1.97371e-09 -4.88098e-10 2.22167 -0.733487 -0.20892 -5.84795e-14 4.99225e-13 -1.28555e-13 -82.2935 49.6736 0.429027 19.6248 -12.3757 -38.0575 0.11058 -9.33052 1.32345 -1.40283e-09 -2.60932e-10 4.82683e-10 -2.42252e-09 -4.5344e-10 8.32634e-10 -1.40284e-09 -2.60927e-10 4.82698e-10 -7.73091 5.47488 -0.417314 -1.40283e-09 -2.60934e-10 4.82687e-10 -2.90554 0.965183 -0.102902 -1.40283e-09 -2.60935e-10 4.82686e-10 -10.2786 0.731801 -0.0259123 -1.40282e-09 -2.60934e-10 4.82682e-10 -2.22167 -0.733487 0.20892 -2.03217e-16 0.0 -3.88251e-19 3.65499 -27.5085 2.22198 -0.187399 35.5339 1.07364 -13.8678 -23.8954 -26.3151 2.03217e-16 0.0 3.88251e-19 5.16541 -33.1598 5.92273 0.335578 37.5655 -0.320377 -8.60588 -27.4159 -15.9894
